# xmcd
#
# Track frame offsets:
#	150
#	16233
#	33955
#	54387
#	70712
#	87868
#	103565
#	119484
#	134120
#	146223
#	161765
#	180807
#	192666
#	204060
#	221525
#	237654
#	251165
#	264449
#	277143
#	291573
#	307119
#
# Disc length: 4358 seconds
#
# Revision: 1
# Processed by: cddbd v1.5.2PL0 Copyright (c) Steve Scherf et al.
# Submitted via: audiograbber 1.83.01
#
DISCID=48110415
DTITLE=Various Artist - CDX Volume 558 (November 5, 2012)
DYEAR=2012
DGENRE=Country
TTITLE0=Jerrod Niemann - Only God Could Love You More 
TTITLE1=Jay Jolley - It's A Friday Thing (A Little More Country)
TTITLE2=J. D. Shelburne - Grandma and Garth
TTITLE3=Mark Cooke - Stay With Me Tonight
TTITLE4=Vince Vance and The Valiants - All I Want For Christmas Is You
TTITLE5=Vince Vance and The Valiants - Christmas Just Ain't Christmas Without You
TTITLE6=Sawyer Brown - Joseph's Prayer 
TTITLE7=Sawyer Brown - He Sent A Carpenter
TTITLE8=Jaida Dreyer - I Saw Mommy Kissing Santa Claus
TTITLE9=Kacey Jones - Christmas In Rehab
TTITLE10=Kacey Jones - I'm Down To My Christmas Underwear
TTITLE11=Geezinslaws - Lighten Up, It's Christmas
TTITLE12=Geezinslaws - Randolf, The Brown Nosed Reindeer
TTITLE13=Connie Kis Andersen - Angels All Around Us
TTITLE14=Travis Denning - Ballad of Rudolph
TTITLE15=Teea Goans - Christmas Time Is Here 
TTITLE16=Tyler Barham - Coal In Your Stocking This Year
TTITLE17=David Wood - Ralph That Sneaky Elf
TTITLE18=David Wood - Santa Bring My Daddy (Safe And Sound)
TTITLE19=Rusty Rierson - Souvenirs 
TTITLE20=Timothy Craig - One Small Miracle 
EXTD=
EXTT0=
EXTT1=
EXTT2=
EXTT3=
EXTT4=
EXTT5=
EXTT6=
EXTT7=
EXTT8=
EXTT9=
EXTT10=
EXTT11=
EXTT12=
EXTT13=
EXTT14=
EXTT15=
EXTT16=
EXTT17=
EXTT18=
EXTT19=
EXTT20=
PLAYORDER=
